<svg id="Layer_1" data-name="Layer 1" xmlns="http://www.w3.org/2000/svg" xmlns:xlink="http://www.w3.org/1999/xlink" viewBox="0 0 352.73 94.96"><defs><style>.cls-1{fill:none;}.cls-2{fill:#f15f43;}.cls-3{fill:#047bc1;}.cls-4{fill:#124e91;}.cls-5{fill:#167ec2;}.cls-6{clip-path:url(#clip-path);}.cls-7{fill:#0e7abf;}.cls-8{fill:#d3e2ee;}.cls-9{fill:#104c8d;}.cls-10{fill:#0068ab;}.cls-11{fill:#1e3667;}.cls-12{fill:#b1c8d5;}</style><clipPath id="clip-path"><rect class="cls-1" x="9.78" y="11.29" width="65.73" height="56.91"/></clipPath></defs><title>BP Tagline Final</title><path class="cls-2" d="M88.66,81l3.59-10.42h1.49l3.48,10.46H95.8l-1-3.19-3.8,0L90,81Zm3.21-5.82-.5,1.59H94.5L94,75.2c-.19-.58-.37-1.17-.53-1.75s-.33-1.17-.5-1.77h-.07c-.16.6-.33,1.19-.5,1.77S92.07,74.61,91.87,75.19Z"/><path class="cls-2" d="M100.92,81.08,101,70.64l2.61,0A4.85,4.85,0,0,1,107.26,72a5.41,5.41,0,0,1,1.23,3.84,6.91,6.91,0,0,1-.33,2.22,4.34,4.34,0,0,1-1,1.65,4,4,0,0,1-1.53,1,5.61,5.61,0,0,1-2.08.34ZM102.25,80h1.19a3.35,3.35,0,0,0,2.75-1.08,4.68,4.68,0,0,0,.94-3.08,4.59,4.59,0,0,0-.9-3,3.44,3.44,0,0,0-2.74-1.06H102.3Z"/><path class="cls-2" d="M111.07,71.81a.91.91,0,0,1-.64-.24.8.8,0,0,1-.26-.61.78.78,0,0,1,.27-.61.89.89,0,0,1,.64-.22,1,1,0,0,1,.65.23A.8.8,0,0,1,112,71a.85.85,0,0,1-.27.61A.93.93,0,0,1,111.07,71.81Zm-.72,9.32.05-7.73h1.3l0,7.73Z"/><path class="cls-2" d="M116.5,84.73a5.85,5.85,0,0,1-1.31-.14,3.19,3.19,0,0,1-1-.41,2.15,2.15,0,0,1-.65-.66,1.7,1.7,0,0,1-.22-.89,1.6,1.6,0,0,1,.31-.94,3.38,3.38,0,0,1,.83-.81v-.06a1.5,1.5,0,0,1-.48-.49,1.4,1.4,0,0,1-.2-.77,1.43,1.43,0,0,1,.28-.86,2.56,2.56,0,0,1,.57-.57v-.06a3,3,0,0,1-.68-.86,2.34,2.34,0,0,1-.31-1.23,2.65,2.65,0,0,1,.87-2,2.66,2.66,0,0,1,.94-.54,3.21,3.21,0,0,1,1.12-.19,2.91,2.91,0,0,1,.6.06,5.07,5.07,0,0,1,.5.14l2.68,0v1h-1.59a2.3,2.3,0,0,1,.63,1.59,2.83,2.83,0,0,1-.23,1.12,2.4,2.4,0,0,1-.61.84,2.71,2.71,0,0,1-.9.53,3.16,3.16,0,0,1-1.11.19,2.46,2.46,0,0,1-.59-.08,3.49,3.49,0,0,1-.57-.2,1.61,1.61,0,0,0-.35.39.9.9,0,0,0-.15.53.77.77,0,0,0,.28.61,1.75,1.75,0,0,0,1.08.24h1.5a3.7,3.7,0,0,1,2,.45,1.54,1.54,0,0,1,.66,1.41,2,2,0,0,1-.27,1,2.55,2.55,0,0,1-.79.85,4.11,4.11,0,0,1-1.23.57A5.55,5.55,0,0,1,116.5,84.73Zm.19-.91a3.54,3.54,0,0,0,1-.12,3,3,0,0,0,.78-.35,1.66,1.66,0,0,0,.49-.5,1.1,1.1,0,0,0,.18-.59.78.78,0,0,0-.39-.75,2.58,2.58,0,0,0-1.16-.21h-1.34l-.49,0a3.1,3.1,0,0,1-.51-.11,2.12,2.12,0,0,0-.61.63,1.31,1.31,0,0,0-.19.67,1.1,1.1,0,0,0,.59,1A3,3,0,0,0,116.69,83.82Zm-.16-6a1.61,1.61,0,0,0,.63-.12,1.64,1.64,0,0,0,.53-.37,1.73,1.73,0,0,0,.36-.57,2.13,2.13,0,0,0,.13-.78,1.75,1.75,0,0,0-.47-1.33,1.58,1.58,0,0,0-1.16-.47,1.57,1.57,0,0,0-1.16.46,1.76,1.76,0,0,0-.48,1.33,1.92,1.92,0,0,0,.12.77,1.61,1.61,0,0,0,.35.58,1.75,1.75,0,0,0,.53.37A1.44,1.44,0,0,0,116.53,77.84Z"/><path class="cls-2" d="M122.41,71.88a.92.92,0,0,1-.64-.25.76.76,0,0,1-.26-.6.77.77,0,0,1,.26-.61,1,1,0,0,1,1.29,0,.77.77,0,0,1,.26.62.79.79,0,0,1-.26.6A.93.93,0,0,1,122.41,71.88Zm-.72,9.32,0-7.74H123L123,81.2Z"/><path class="cls-2" d="M127.74,81.42a2.44,2.44,0,0,1-1-.2,1.8,1.8,0,0,1-.69-.52,2.11,2.11,0,0,1-.36-.82,4.34,4.34,0,0,1-.11-1l0-4.28h-1.14v-1l1.21-.07.17-2.17h1.1v2.16H129v1.07h-2.09l0,4.29a1.94,1.94,0,0,0,.26,1.11,1.06,1.06,0,0,0,.93.4,1.85,1.85,0,0,0,.44-.06,3.58,3.58,0,0,0,.43-.15l.25,1a5.67,5.67,0,0,1-.69.2A3.81,3.81,0,0,1,127.74,81.42Z"/><path class="cls-2" d="M132.34,81.45a2.4,2.4,0,0,1-1.61-.58,2.08,2.08,0,0,1-.63-1.63,2.12,2.12,0,0,1,1.14-1.94,9.26,9.26,0,0,1,3.62-.93,3.51,3.51,0,0,0-.07-.72,2,2,0,0,0-.24-.62,1.31,1.31,0,0,0-.49-.44,1.64,1.64,0,0,0-.78-.17,3.12,3.12,0,0,0-1.26.25,5.56,5.56,0,0,0-1.06.56l-.5-.91a7.84,7.84,0,0,1,1.33-.66,4.36,4.36,0,0,1,1.72-.32,2.35,2.35,0,0,1,2,.88,3.87,3.87,0,0,1,.63,2.32l0,4.74h-1.08l-.11-.92h-.05a7.17,7.17,0,0,1-1.19.78A3.11,3.11,0,0,1,132.34,81.45Zm.39-1a2.19,2.19,0,0,0,1.06-.26,5.57,5.57,0,0,0,1.05-.76V77.23a13.67,13.67,0,0,0-1.63.29,4.44,4.44,0,0,0-1.07.41,1.58,1.58,0,0,0-.59.55,1.3,1.3,0,0,0-.19.67,1.12,1.12,0,0,0,.39,1A1.64,1.64,0,0,0,132.73,80.4Z"/><path class="cls-2" d="M139.66,81.49a1.24,1.24,0,0,1-1.07-.45,2.29,2.29,0,0,1-.31-1.31l.06-9.77h1.3l0,9.86a.66.66,0,0,0,.11.45.33.33,0,0,0,.25.13h.12l.17,0,.17,1a1.26,1.26,0,0,1-.31.09A2.59,2.59,0,0,1,139.66,81.49Z"/><path class="cls-2" d="M146.47,81.34l-2.15-10.45h1.36l1.07,5.69c.09.57.19,1.14.29,1.69s.2,1.11.3,1.69h.06c.12-.58.24-1.14.37-1.7s.26-1.11.38-1.67l1.48-5.67h1.21l1.41,5.69c.13.55.25,1.11.38,1.67s.24,1.14.37,1.71h.06c.1-.57.2-1.14.3-1.69s.2-1.12.31-1.68L154.8,71h1.27l-2.22,10.43h-1.59l-1.54-6.29c-.09-.41-.18-.8-.26-1.19s-.15-.78-.24-1.19h-.06l-.27,1.19c-.09.38-.18.78-.27,1.18L148,81.34Z"/><path class="cls-2" d="M160.26,81.61a3.67,3.67,0,0,1-1.36-.28,3.47,3.47,0,0,1-1.14-.8,4,4,0,0,1-.78-1.27,4.89,4.89,0,0,1-.28-1.72,4.63,4.63,0,0,1,.3-1.72,4,4,0,0,1,.8-1.28,3.3,3.3,0,0,1,1.14-.79,3.7,3.7,0,0,1,1.36-.26,3.48,3.48,0,0,1,1.36.28,3.2,3.2,0,0,1,1.13.8,3.77,3.77,0,0,1,.78,1.29,4.63,4.63,0,0,1,.29,1.72,4.78,4.78,0,0,1-.31,1.71,3.61,3.61,0,0,1-.79,1.27,3.41,3.41,0,0,1-1.14.78A3.51,3.51,0,0,1,160.26,81.61Zm0-1.09a1.88,1.88,0,0,0,.91-.21,2,2,0,0,0,.71-.6,2.79,2.79,0,0,0,.46-.93,4.46,4.46,0,0,0,.17-1.2,4.24,4.24,0,0,0-.16-1.22,3,3,0,0,0-.44-1,2.1,2.1,0,0,0-.71-.62,2,2,0,0,0-2.52.6,3.05,3.05,0,0,0-.46.94,4.28,4.28,0,0,0-.17,1.22,4.5,4.5,0,0,0,.15,1.21,3.1,3.1,0,0,0,.45.93,2,2,0,0,0,.71.61A1.82,1.82,0,0,0,160.26,80.52Z"/><path class="cls-2" d="M165.59,81.44l0-7.73h1.08l.11,1.4h0a3.75,3.75,0,0,1,1-1.16,2,2,0,0,1,1.24-.42,2.19,2.19,0,0,1,.83.16l-.27,1.15a2.68,2.68,0,0,0-.35-.1,2.06,2.06,0,0,0-.39,0,1.77,1.77,0,0,0-1,.39,3.11,3.11,0,0,0-.94,1.38l0,5Z"/><path class="cls-2" d="M171,81.48l.07-11.33h1.29l0,7.67h0l3.32-4h1.45l-2.62,3.08,2.92,4.65H176l-2.24-3.73-1.46,1.68v2Z"/><path class="cls-2" d="M179.2,81.52l0-6.67h-1.05v-1l1.05-.07V72.56a2.93,2.93,0,0,1,.56-1.87,2.05,2.05,0,0,1,1.71-.67,3.14,3.14,0,0,1,.7.07,3.4,3.4,0,0,1,.59.19l-.29,1a2.12,2.12,0,0,0-.87-.2c-.73,0-1.09.49-1.09,1.49V73.8h1.64v1.06h-1.64l0,6.67Z"/><path class="cls-2" d="M186.38,81.75a3.47,3.47,0,0,1-2.49-1.07,4.06,4.06,0,0,1-.78-1.28,4.79,4.79,0,0,1-.28-1.71,4.59,4.59,0,0,1,.3-1.72,3.93,3.93,0,0,1,.8-1.28,3.3,3.3,0,0,1,1.14-.79,3.47,3.47,0,0,1,1.36-.26,3.31,3.31,0,0,1,1.36.28,3.2,3.2,0,0,1,1.13.8A3.82,3.82,0,0,1,189.7,76a4.69,4.69,0,0,1,.29,1.73,4.78,4.78,0,0,1-.31,1.71,3.86,3.86,0,0,1-.79,1.27,3.41,3.41,0,0,1-1.14.78A3.34,3.34,0,0,1,186.38,81.75Zm0-1.08a2,2,0,0,0,.91-.21,2,2,0,0,0,.71-.6,2.89,2.89,0,0,0,.46-.93,4.47,4.47,0,0,0,.17-1.21,4.17,4.17,0,0,0-.16-1.21,2.7,2.7,0,0,0-.45-1,1.89,1.89,0,0,0-.7-.62,2,2,0,0,0-1.81,0,1.89,1.89,0,0,0-.71.61,2.75,2.75,0,0,0-.46.94,4.23,4.23,0,0,0-.17,1.22,4.56,4.56,0,0,0,.15,1.21,3.1,3.1,0,0,0,.45.93,2.07,2.07,0,0,0,.71.61A1.82,1.82,0,0,0,186.39,80.67Z"/><path class="cls-2" d="M191.72,81.59l0-7.73h1.08l.11,1.4h0a3.75,3.75,0,0,1,1-1.16,2,2,0,0,1,1.24-.42,1.94,1.94,0,0,1,.82.16L195.76,75a1.69,1.69,0,0,0-.35-.1l-.39,0a1.7,1.7,0,0,0-1,.4,3.11,3.11,0,0,0-.94,1.38l0,5Z"/><path class="cls-2" d="M200,81.83a3.8,3.8,0,0,1-1.43-.28,3.38,3.38,0,0,1-1.15-.79,3.76,3.76,0,0,1-.75-1.28,5.07,5.07,0,0,1-.27-1.71,4.68,4.68,0,0,1,.31-1.73,4,4,0,0,1,.82-1.27,3.4,3.4,0,0,1,1.19-.79,3.63,3.63,0,0,1,1.43-.26,2.9,2.9,0,0,1,1.3.27,4.42,4.42,0,0,1,.95.65l-.67.85A3.67,3.67,0,0,0,201,75a1.91,1.91,0,0,0-.83-.19,2.22,2.22,0,0,0-1,.21,2.07,2.07,0,0,0-.77.61,3.12,3.12,0,0,0-.51.94,3.9,3.9,0,0,0-.19,1.22,4.16,4.16,0,0,0,.17,1.21,2.73,2.73,0,0,0,.48.93,2.32,2.32,0,0,0,.75.61,2.26,2.26,0,0,0,1,.22,2.13,2.13,0,0,0,1-.23A4.15,4.15,0,0,0,202,80l.57.88a4.12,4.12,0,0,1-1.17.71A3.37,3.37,0,0,1,200,81.83Z"/><path class="cls-2" d="M206.91,81.87a3.68,3.68,0,0,1-1.45-.29,3.39,3.39,0,0,1-1.17-.8,3.63,3.63,0,0,1-.78-1.27,5.16,5.16,0,0,1,0-3.41,4.2,4.2,0,0,1,.79-1.28,3.57,3.57,0,0,1,1.11-.8,3.25,3.25,0,0,1,1.29-.27A3.19,3.19,0,0,1,208,74a2.52,2.52,0,0,1,1,.73,3.47,3.47,0,0,1,.59,1.15,5.39,5.39,0,0,1,.2,1.5c0,.14,0,.27,0,.4a2.84,2.84,0,0,1,0,.35l-5.22,0a3,3,0,0,0,.76,2,2.39,2.39,0,0,0,1.8.73,3.13,3.13,0,0,0,1-.16,4.63,4.63,0,0,0,.9-.43l.45.86a6.59,6.59,0,0,1-1.13.55A4.15,4.15,0,0,1,206.91,81.87Zm-2.4-4.69,4.13,0a2.75,2.75,0,0,0-.49-1.79,1.7,1.7,0,0,0-1.4-.62,2,2,0,0,0-1.47.62,2.61,2.61,0,0,0-.51.75A3.47,3.47,0,0,0,204.51,77.18Z"/><path class="cls-2" d="M214.76,81.72l0-6.66h-1.05v-1L214.8,74V72.77a2.91,2.91,0,0,1,.56-1.88,2.05,2.05,0,0,1,1.71-.67,3,3,0,0,1,.69.07,3.25,3.25,0,0,1,.6.19l-.29,1a2.3,2.3,0,0,0-.88-.2c-.72,0-1.08.5-1.09,1.49V74h1.64v1.06H216.1l0,6.67Z"/><path class="cls-2" d="M221.94,82a3.43,3.43,0,0,1-1.35-.27,3.47,3.47,0,0,1-1.14-.8,3.79,3.79,0,0,1-.78-1.28,4.58,4.58,0,0,1-.28-1.71,4.63,4.63,0,0,1,.3-1.72,4,4,0,0,1,.8-1.28,3.3,3.3,0,0,1,1.14-.79,3.56,3.56,0,0,1,2.72,0,3.29,3.29,0,0,1,1.13.8,3.77,3.77,0,0,1,.78,1.29,4.84,4.84,0,0,1,.29,1.72,4.78,4.78,0,0,1-.31,1.71,3.86,3.86,0,0,1-.79,1.27,3.39,3.39,0,0,1-2.51,1Zm0-1.08a2,2,0,0,0,.91-.21,2.13,2.13,0,0,0,.71-.6,2.89,2.89,0,0,0,.46-.93,4.1,4.1,0,0,0,.16-1.2,3.89,3.89,0,0,0-.15-1.22,2.7,2.7,0,0,0-.45-.95,2.07,2.07,0,0,0-.7-.62,2,2,0,0,0-.91-.22,2,2,0,0,0-.9.21,2.1,2.1,0,0,0-.72.61,2.93,2.93,0,0,0-.45.94,4.23,4.23,0,0,0-.17,1.22,4.5,4.5,0,0,0,.15,1.21,3.1,3.1,0,0,0,.45.93,2,2,0,0,0,.7.61A1.88,1.88,0,0,0,222,80.87Z"/><path class="cls-2" d="M227.28,81.79l0-7.73h1.08l.11,1.4h0a3.62,3.62,0,0,1,1-1.16,2,2,0,0,1,1.24-.42,2.1,2.1,0,0,1,.82.16l-.26,1.15a1.69,1.69,0,0,0-.35-.1,2.06,2.06,0,0,0-.39,0,1.63,1.63,0,0,0-1,.39,3.11,3.11,0,0,0-.94,1.38l0,5Z"/><path class="cls-2" d="M235.15,81.84l.06-10.44,6,0v1.11l-4.7,0V75.8l4,0V77l-4,0,0,3.79,4.85,0v1.13Z"/><path class="cls-2" d="M244.71,81.89,242,74.14h1.36l1.43,4.4c.12.38.24.77.35,1.15s.24.76.36,1.13h.06l.36-1.13c.12-.38.23-.76.35-1.14l1.49-4.38H249l-2.78,7.72Z"/><path class="cls-2" d="M253.22,82.13a3.73,3.73,0,0,1-1.46-.29,3.35,3.35,0,0,1-1.17-.8,3.68,3.68,0,0,1-.78-1.27,5.08,5.08,0,0,1,0-3.41,4,4,0,0,1,.79-1.28,3.32,3.32,0,0,1,1.11-.79A2.88,2.88,0,0,1,253,74a3.26,3.26,0,0,1,1.31.26,2.51,2.51,0,0,1,1,.74,3.16,3.16,0,0,1,.59,1.14,5,5,0,0,1,.2,1.5c0,.14,0,.27,0,.41a1.67,1.67,0,0,1,0,.34l-5.22,0a3,3,0,0,0,.76,2,2.39,2.39,0,0,0,1.8.73,3.09,3.09,0,0,0,1-.16,4.63,4.63,0,0,0,.9-.43l.46.86a7,7,0,0,1-1.13.55A4,4,0,0,1,253.22,82.13Zm-2.41-4.69,4.14,0a2.81,2.81,0,0,0-.49-1.79,1.72,1.72,0,0,0-1.41-.62,2.13,2.13,0,0,0-.79.15,2,2,0,0,0-.67.47,2.49,2.49,0,0,0-.51.75A3.19,3.19,0,0,0,250.81,77.44Z"/><path class="cls-2" d="M257.76,82l0-7.74h1.08l.11,1.4h0a3.62,3.62,0,0,1,1-1.16,2,2,0,0,1,1.24-.42,1.94,1.94,0,0,1,.82.17l-.26,1.14a2.68,2.68,0,0,0-.35-.1,2.06,2.06,0,0,0-.39,0,1.75,1.75,0,0,0-1,.39,3.11,3.11,0,0,0-.94,1.38l0,5Z"/><path class="cls-2" d="M263.87,85.33a3.52,3.52,0,0,1-.49,0,1.31,1.31,0,0,1-.41-.12l.26-1,.28.07a1.13,1.13,0,0,0,.3,0,1.39,1.39,0,0,0,1.1-.46,3.27,3.27,0,0,0,.66-1.18l.18-.57-3.06-7.77H264l1.56,4.29c.11.34.23.7.36,1.07s.26.75.37,1.11h.06c.12-.35.24-.71.35-1.09s.21-.75.32-1.08l1.41-4.28h1.27l-3,8.35a8,8,0,0,1-.47,1.07,3.53,3.53,0,0,1-.6.84,2.7,2.7,0,0,1-.8.56A2.44,2.44,0,0,1,263.87,85.33Z"/><path class="cls-2" d="M273.55,82.06l.06-10.44,6,0v1.12l-4.69,0,0,3.28,4,0v1.13l-4,0,0,3.78,4.86,0v1.13Z"/><path class="cls-2" d="M281.35,82.1l0-7.73h1.08l.11,1.12h.05a6.29,6.29,0,0,1,1.17-.93,2.67,2.67,0,0,1,1.43-.36A2.06,2.06,0,0,1,287,75a3.77,3.77,0,0,1,.55,2.26l0,4.9h-1.31l0-4.73a2.79,2.79,0,0,0-.34-1.58,1.28,1.28,0,0,0-1.11-.49,1.83,1.83,0,0,0-1.07.29,7.22,7.22,0,0,0-1.06.89l0,5.6Z"/><path class="cls-2" d="M292.14,82.35a2.47,2.47,0,0,1-1-.2,1.7,1.7,0,0,1-.68-.52,2.13,2.13,0,0,1-.37-.82,4.36,4.36,0,0,1-.1-1l0-4.28h-1.14v-1l1.21-.07.17-2.17h1.1v2.16l2.08,0V75.5h-2.09l0,4.29a1.94,1.94,0,0,0,.25,1.11,1.08,1.08,0,0,0,.93.4,1.86,1.86,0,0,0,.45-.06,3.58,3.58,0,0,0,.43-.15l.25,1a6.43,6.43,0,0,1-.7.2A3.72,3.72,0,0,1,292.14,82.35Z"/><path class="cls-2" d="M297.83,82.38a3.72,3.72,0,0,1-1.46-.28,3.41,3.41,0,0,1-1.17-.81,3.73,3.73,0,0,1-.78-1.26,4.79,4.79,0,0,1-.28-1.71,4.86,4.86,0,0,1,.31-1.71,4,4,0,0,1,.78-1.27,3.41,3.41,0,0,1,1.11-.8,3.25,3.25,0,0,1,1.29-.27,3.19,3.19,0,0,1,1.31.26,2.54,2.54,0,0,1,1,.74,3.21,3.21,0,0,1,.59,1.15,4.93,4.93,0,0,1,.2,1.49c0,.14,0,.28,0,.41a2.9,2.9,0,0,1,0,.34l-5.22,0a3,3,0,0,0,.76,2,2.35,2.35,0,0,0,1.8.73,2.86,2.86,0,0,0,1-.16,4.63,4.63,0,0,0,.9-.43l.46.86a6,6,0,0,1-1.14.55A3.66,3.66,0,0,1,297.83,82.38Zm-2.41-4.69,4.14,0a2.76,2.76,0,0,0-.5-1.8,1.73,1.73,0,0,0-1.4-.62,1.92,1.92,0,0,0-.79.16,2.15,2.15,0,0,0-.68.46,2.57,2.57,0,0,0-.5.76A3.06,3.06,0,0,0,295.42,77.69Z"/><path class="cls-2" d="M302.36,82.22l.05-7.73h1.08l.1,1.4h.05a3.58,3.58,0,0,1,1-1.15,2,2,0,0,1,1.24-.43,2.14,2.14,0,0,1,.82.17l-.26,1.14-.35-.09a1.46,1.46,0,0,0-.39,0,1.75,1.75,0,0,0-1,.39,3.23,3.23,0,0,0-.94,1.38l0,5Z"/><path class="cls-2" d="M307.79,85.51l.06-11h1.09l.1.89h0a5.66,5.66,0,0,1,1.16-.76,2.77,2.77,0,0,1,1.31-.31,3.05,3.05,0,0,1,1.32.28,2.63,2.63,0,0,1,.95.8,3.61,3.61,0,0,1,.58,1.25,5.9,5.9,0,0,1,.18,1.63,5.33,5.33,0,0,1-.27,1.76,4.26,4.26,0,0,1-.74,1.31,3.45,3.45,0,0,1-1.07.81,3.13,3.13,0,0,1-1.28.27,2.43,2.43,0,0,1-1.07-.25,5.57,5.57,0,0,1-1.07-.65l0,1.35v2.61ZM311,81.36a1.91,1.91,0,0,0,.89-.21,2,2,0,0,0,.7-.6,2.87,2.87,0,0,0,.47-1,4.63,4.63,0,0,0,.17-1.29,5.28,5.28,0,0,0-.1-1.16,2.6,2.6,0,0,0-.35-.9,1.81,1.81,0,0,0-.64-.59,2.2,2.2,0,0,0-.93-.21,2.05,2.05,0,0,0-1,.27,5.47,5.47,0,0,0-1.08.77l0,4.06a3.22,3.22,0,0,0,1,.63A2.41,2.41,0,0,0,311,81.36Z"/><path class="cls-2" d="M316.36,82.3l.05-7.74h1.08l.1,1.4h.05a3.58,3.58,0,0,1,1-1.15,2,2,0,0,1,1.23-.43,2.15,2.15,0,0,1,.83.17l-.26,1.14-.35-.1a2.25,2.25,0,0,0-.4,0,1.74,1.74,0,0,0-1,.39,3.23,3.23,0,0,0-.94,1.38l0,5Z"/><path class="cls-2" d="M322.53,73a.91.91,0,0,1-.64-.24.85.85,0,0,1,0-1.22,1,1,0,0,1,.65-.23.91.91,0,0,1,.64.24.75.75,0,0,1,.26.61.76.76,0,0,1-.26.6A1,1,0,0,1,322.53,73Zm-.72,9.32,0-7.73h1.31l-.05,7.74Z"/><path class="cls-2" d="M327.44,82.55a4.18,4.18,0,0,1-1.57-.31,4.76,4.76,0,0,1-1.3-.77l.66-.87a5.17,5.17,0,0,0,1,.67,2.86,2.86,0,0,0,1.24.26,1.59,1.59,0,0,0,1.14-.34,1.11,1.11,0,0,0,.39-.86.85.85,0,0,0-.16-.52,1.36,1.36,0,0,0-.4-.39,2.29,2.29,0,0,0-.56-.3l-.64-.26c-.27-.1-.55-.21-.82-.33a3.84,3.84,0,0,1-.74-.45,2.24,2.24,0,0,1-.53-.62,1.58,1.58,0,0,1-.2-.84,2,2,0,0,1,.19-.87,1.88,1.88,0,0,1,.53-.69,2.29,2.29,0,0,1,.83-.46,3.52,3.52,0,0,1,1.12-.16,3.44,3.44,0,0,1,1.34.26,4.07,4.07,0,0,1,1.06.63l-.63.82a4.16,4.16,0,0,0-.83-.5,2.18,2.18,0,0,0-.93-.19,1.47,1.47,0,0,0-1.08.32,1.07,1.07,0,0,0-.34.78.75.75,0,0,0,.14.47,1.17,1.17,0,0,0,.38.35,2.74,2.74,0,0,0,.54.28l.65.25.83.34a3.08,3.08,0,0,1,.75.44,1.93,1.93,0,0,1,.55.65,1.87,1.87,0,0,1,.21.92,2.18,2.18,0,0,1-.19.89,2.14,2.14,0,0,1-.54.73,2.6,2.6,0,0,1-.9.5A3.79,3.79,0,0,1,327.44,82.55Z"/><path class="cls-2" d="M335.09,82.59a3.61,3.61,0,0,1-2.63-1.08,3.78,3.78,0,0,1-.78-1.27,4.8,4.8,0,0,1-.27-1.71,4.65,4.65,0,0,1,.3-1.71,4,4,0,0,1,.79-1.27,3.21,3.21,0,0,1,1.11-.8,3.32,3.32,0,0,1,2.6,0,2.54,2.54,0,0,1,1,.74,3.57,3.57,0,0,1,.59,1.15,5.27,5.27,0,0,1,.2,1.49c0,.14,0,.28,0,.41a2.49,2.49,0,0,1,0,.34l-5.22,0a3,3,0,0,0,.77,2,2.34,2.34,0,0,0,1.8.73,2.8,2.8,0,0,0,1-.16,4.45,4.45,0,0,0,.91-.43l.45.86a6.24,6.24,0,0,1-1.13.55A3.75,3.75,0,0,1,335.09,82.59Zm-2.41-4.69,4.14,0a2.76,2.76,0,0,0-.49-1.8,1.74,1.74,0,0,0-1.41-.62,1.91,1.91,0,0,0-.78.16,2,2,0,0,0-.68.46,2.81,2.81,0,0,0-.51.76A3.63,3.63,0,0,0,332.68,77.9Z"/><path class="cls-3" d="M202.93,23.71h2.87l1,4.24h.31c3.06-3.24,6.3-4.86,9.79-4.86C224,23.09,229,29.27,229,40s-5,16.9-12.11,16.9c-3.49,0-6.73-1.56-9.79-4.8h-.31V68.2h-3.87Zm3.87,23.9c3.24,4.12,6.17,6.17,9.79,6.17,5.37,0,8.55-4.8,8.55-13.72S222,26.33,216.59,26.33c-3.62,0-6.55,2-9.79,6.12Z"/><path class="cls-3" d="M236.41,23.71h3.81v5.68h.37c2.25-4.31,5.12-6.24,9.36-6.24h.19v3.74h-.5c-4.56,0-7.55,2.62-9.42,8.8V56.34h-3.81Z"/><rect class="cls-3" x="255.88" y="23.71" width="3.81" height="32.63"/><path class="cls-3" d="M279.32,53.85c4.06,0,6.74-2.56,6.74-6,0-3.93-3.06-4.81-8.42-6.8-6.61-2.44-10.05-4.31-10.05-9.3s4.06-8.67,10.55-8.67c4.24,0,8,2.06,10.85,6l-2.74,2c-2.5-3.3-5.18-4.86-8.8-4.86s-5.86,2.18-5.86,5.36c0,3.5,3.18,4.31,8.61,6.37,6.49,2.43,9.79,4.43,9.79,9.61,0,5.42-4.37,9.35-11.1,9.35-5.12,0-9.05-2-12.29-6.42l2.87-2.31C272.27,51.91,275.52,53.85,279.32,53.85Z"/><path class="cls-3" d="M297,23.71h3.55v5.06h.25c3.43-3.75,7.05-5.62,10.48-5.62,3.68,0,6.3,1.87,7.8,5.62h.44c3.56-3.75,7-5.62,10.48-5.62q8.24,0,8.24,10.48V56.34h-3.69V35c0-5.74-1-8.49-5.61-8.49-3,0-6.24,2-9.42,6.05V56.34h-3.74V35c0-5.74-1-8.49-5.62-8.49-3,0-6.18,2-9.42,6.05V56.34H297Z"/><path class="cls-4" d="M95.16,11.11v16.1a9.59,9.59,0,0,1,8-4.06c7.86,0,13.1,6.24,13.1,16.66,0,10.86-4.93,17.09-13,17.09a10.36,10.36,0,0,1-8.73-4.3l-.94,3.74H88.92c.32-3.24.38-6.3.38-9.17V11.11ZM102.27,52c5,0,7.93-4.06,7.93-11.73,0-8-2.87-12.17-8.11-12.17-2.56,0-4.81,1.31-6.93,3.93V47.92C97.28,50.6,99.59,52,102.27,52Z"/><path class="cls-4" d="M129,11.11V56.34h-5.86V11.11Z"/><path class="cls-4" d="M144.17,23.65v22c0,4.31,1.37,6.3,4.8,6.3,2.56,0,5.31-1.43,8.11-4.3v-24H163V56.34h-5.49V51.91c-3.62,3.25-6.8,4.93-10.48,4.93-5.55,0-8.8-3.43-8.8-9.61V23.65Z"/><path class="cls-4" d="M175.64,41.06v.62c0,6.61,3,10.3,8.18,10.3,3.43,0,6.05-1.69,7.92-5.12l4.37,2.68A13.61,13.61,0,0,1,183.51,57c-8.93,0-13.85-5.81-13.85-16.6,0-11.17,5-17.28,13.47-17.28,7.8,0,12.79,5.93,12.79,16.28,0,.56-.06,1.13-.06,1.69Zm7.3-13.23c-4.3,0-7,3.06-7.23,8.67h14.16C189.74,31,187.06,27.83,182.94,27.83Z"/><path class="cls-5" d="M334.05,11.14a4.19,4.19,0,1,1-4.18,4.19A4.2,4.2,0,0,1,334.05,11.14Zm0,7.75a3.41,3.41,0,0,0,3.38-3.56,3.39,3.39,0,1,0-6.77,0A3.41,3.41,0,0,0,334.06,18.89Zm-1.61-6h1.88c1.13,0,1.68.45,1.68,1.38a1.25,1.25,0,0,1-1.26,1.36l1.39,2.16h-.85l-1.36-2.16h-.68v2.16h-.8Zm.8,2.11h.95c.62,0,1-.13,1-.77s-.5-.71-1-.71h-.95Z"/><g id="Artwork_10" data-name="Artwork 10"><g class="cls-6"><polygon class="cls-7" points="64.41 36.44 53.4 42.76 53.43 42.79 64.53 55.49 64.53 55.49 75.51 49.13 64.42 36.44 64.41 36.44"/><polygon class="cls-8" points="64.53 55.49 64.53 55.49 53.6 61.82 53.6 61.82 42.55 48.98 42.55 48.98 53.4 42.76 53.43 42.79 64.53 55.49"/><polygon class="cls-8" points="64.42 36.44 64.41 36.44 53.4 42.76 42.5 30.17 53.34 23.76 53.34 23.76 64.42 36.44"/><polygon class="cls-7" points="42.59 68.2 53.6 61.82 53.6 61.82 42.55 48.98 42.59 68.2"/><polygon class="cls-9" points="42.5 30.17 53.4 42.76 42.55 48.98 42.5 30.17 42.5 30.17"/><polygon class="cls-7" points="42.5 30.17 42.5 30.17 53.34 23.76 53.34 23.76 42.45 11.29 42.5 30.17"/><polygon class="cls-10" points="20.5 55.36 20.5 55.36 42.59 68.2 42.55 48.98 42.55 48.98 31.52 42.73 20.64 36.56 20.5 55.36"/><polygon class="cls-11" points="42.5 30.17 42.55 48.98 42.55 48.98 31.52 42.73 31.52 42.73 31.47 24.01 42.5 30.17 42.5 30.17"/><polygon class="cls-10" points="42.45 11.29 31.47 24.01 31.47 24.01 42.5 30.17 42.5 30.17 42.45 11.29"/><polygon class="cls-12" points="31.52 42.73 31.52 42.73 20.64 36.56 20.63 36.56 31.47 24.01 31.47 24.01 31.52 42.73"/><polygon class="cls-11" points="9.78 49.13 20.5 55.36 20.5 55.36 20.64 36.56 20.63 36.56 9.78 49.13"/></g></g></svg>